<svg width="40" height="41" viewBox="0 0 40 41" fill="none" xmlns="http://www.w3.org/2000/svg">
<circle cx="20" cy="20.0161" r="20" fill="#FAFAFA"/>
<path d="M25 10.0161H15C12.2386 10.0161 10 12.2547 10 15.0161V25.0161C10 27.7775 12.2386 30.0161 15 30.0161H25C27.7614 30.0161 30 27.7775 30 25.0161V15.0161C30 12.2547 27.7614 10.0161 25 10.0161Z" stroke="black" stroke-width="2" stroke-linecap="round" stroke-linejoin="round"/>
<path d="M24 19.3861C24.1234 20.2184 23.9813 21.0683 23.5938 21.8151C23.2063 22.5619 22.5931 23.1675 21.8416 23.5458C21.0901 23.924 20.2384 24.0557 19.4078 23.922C18.5771 23.7884 17.8098 23.3962 17.2148 22.8013C16.6199 22.2063 16.2277 21.439 16.0941 20.6083C15.9604 19.7777 16.0921 18.926 16.4703 18.1745C16.8486 17.423 17.4542 16.8099 18.201 16.4224C18.9478 16.0349 19.7978 15.8927 20.63 16.0161C21.4789 16.142 22.2648 16.5376 22.8717 17.1444C23.4785 17.7513 23.8741 18.5372 24 19.3861Z" stroke="black" stroke-width="2" stroke-linecap="round" stroke-linejoin="round"/>
<path d="M25.5 14.5161H25.51" stroke="black" stroke-width="2" stroke-linecap="round" stroke-linejoin="round"/>
</svg>
