<svg width="146" height="22" viewBox="0 0 146 22" fill="none" xmlns="http://www.w3.org/2000/svg">
<path d="M145 1H142C140.674 1 139.402 1.5268 138.465 2.4645C137.527 3.4021 137 4.6739 137 6V9H134V13H137V21H141V13H144L145 9H141V6C141 5.7348 141.105 5.4804 141.293 5.2929C141.48 5.1054 141.735 5 142 5H145V1Z" stroke="black" stroke-width="2" stroke-linecap="round" stroke-linejoin="round"/>
<path d="M84 2.01009C83.0424 2.68549 81.9821 3.20219 80.86 3.54009C80.2577 2.84759 79.4573 2.35669 78.567 2.13399C77.6767 1.91119 76.7395 1.96729 75.8821 2.29449C75.0247 2.62179 74.2884 3.20449 73.773 3.96379C73.2575 4.72309 72.9877 5.62239 73 6.54009V7.54009C71.2426 7.58559 69.5013 7.19589 67.931 6.40549C66.3607 5.61509 65.0103 4.44869 64 3.01009C64 3.01009 60 12.0101 69 16.0101C66.9405 17.408 64.4872 18.109 62 18.0101C71 23.0101 82 18.0101 82 6.51009C81.9991 6.23149 81.9723 5.95369 81.92 5.68009C82.9406 4.67349 83.6608 3.40279 84 2.01009Z" stroke="black" stroke-width="2" stroke-linecap="round" stroke-linejoin="round"/>
<path d="M16 1H6C3.2386 1 1 3.184 1 5.87805V15.6341C1 18.3282 3.2386 20.5122 6 20.5122H16C18.7614 20.5122 21 18.3282 21 15.6341V5.87805C21 3.184 18.7614 1 16 1Z" stroke="black" stroke-width="2" stroke-linecap="round" stroke-linejoin="round"/>
<path d="M15 10.1415C15.1234 10.9535 14.9813 11.7826 14.5938 12.5112C14.2063 13.2398 13.5931 13.8306 12.8416 14.1997C12.0901 14.5687 11.2384 14.6972 10.4078 14.5667C9.5771 14.4364 8.80979 14.0538 8.21479 13.4734C7.61989 12.8929 7.2277 12.1443 7.0941 11.3339C6.9604 10.5235 7.0921 9.69259 7.4703 8.95942C7.8486 8.22625 8.45419 7.6281 9.20099 7.25005C9.94779 6.87201 10.7978 6.73327 11.63 6.85366C12.4789 6.97649 13.2648 7.36245 13.8717 7.95445C14.4785 8.54654 14.8741 9.31328 15 10.1415Z" stroke="black" stroke-width="2" stroke-linecap="round" stroke-linejoin="round"/>
</svg>
